<svg xmlns="http://www.w3.org/2000/svg" xmlns:xlink="http://www.w3.org/1999/xlink" width="300" zoomAndPan="magnify" viewBox="0 0 224.87999 74.999997" height="100" preserveAspectRatio="xMidYMid meet" version="1.0"><defs><g/><clipPath id="1ae8e0b526"><path d="M 0 0.0195312 L 224.761719 0.0195312 L 224.761719 74.980469 L 0 74.980469 Z M 0 0.0195312 " clip-rule="nonzero"/></clipPath><clipPath id="f7c125f888"><path d="M 10.539062 8.75 L 98 8.75 L 98 49 L 10.539062 49 Z M 10.539062 8.75 " clip-rule="nonzero"/></clipPath><clipPath id="ecad1eeb55"><path d="M 22 26 L 109.488281 26 L 109.488281 66.472656 L 22 66.472656 Z M 22 26 " clip-rule="nonzero"/></clipPath><clipPath id="a94f7715c1"><rect x="0" width="126" y="0" height="17"/></clipPath></defs><g clip-path="url(#1ae8e0b526)"><path fill="#ffffff" d="M 0 0.0195312 L 224.878906 0.0195312 L 224.878906 74.980469 L 0 74.980469 Z M 0 0.0195312 " fill-opacity="1" fill-rule="nonzero"/><path fill="#ededed" d="M 0 0.0195312 L 224.878906 0.0195312 L 224.878906 74.980469 L 0 74.980469 Z M 0 0.0195312 " fill-opacity="1" fill-rule="nonzero"/></g><g clip-path="url(#f7c125f888)"><path fill="#04539a" d="M 45.097656 8.753906 C 31.859375 8.753906 19.769531 10.929688 10.5625 14.519531 C 18.191406 12.703125 26.921875 11.675781 36.195312 11.675781 C 66.109375 11.675781 90.363281 22.390625 90.363281 35.609375 C 90.363281 40.152344 87.496094 44.398438 82.523438 48.019531 C 91.710938 43.851562 97.371094 38.15625 97.371094 31.875 C 97.371094 19.105469 73.96875 8.753906 45.097656 8.753906 " fill-opacity="1" fill-rule="nonzero"/></g><g clip-path="url(#ecad1eeb55)"><path fill="#04539a" d="M 74.683594 66.242188 C 87.921875 66.242188 100.011719 64.066406 109.21875 60.476562 C 101.589844 62.289062 92.859375 63.320312 83.585938 63.320312 C 53.671875 63.320312 29.417969 52.605469 29.417969 39.386719 C 29.417969 34.84375 32.285156 30.59375 37.257812 26.976562 C 28.070312 31.144531 22.40625 36.839844 22.40625 43.121094 C 22.40625 55.890625 45.8125 66.242188 74.683594 66.242188 " fill-opacity="1" fill-rule="nonzero"/></g><path fill="#04539a" d="M 77.070312 31.480469 L 53.027344 17.597656 C 50.019531 15.863281 46.265625 18.03125 46.265625 21.503906 L 46.265625 49.265625 C 46.265625 52.738281 50.019531 54.90625 53.027344 53.171875 L 77.070312 39.289062 C 80.074219 37.554688 80.074219 33.214844 77.070312 31.480469 L 53.027344 17.597656 C 50.019531 15.863281 46.265625 18.03125 46.265625 21.503906 L 46.265625 49.265625 C 46.265625 52.738281 50.019531 54.90625 53.027344 53.171875 L 77.070312 39.289062 C 80.074219 37.554688 80.074219 33.214844 77.070312 31.480469 " fill-opacity="1" fill-rule="nonzero"/><g transform="matrix(1, 0, 0, 1, 98, 30)"><g clip-path="url(#a94f7715c1)"><g fill="#04539a" fill-opacity="1"><g transform="translate(0.858513, 12.489764)"><g><path d="M 3.4375 0 L 1.296875 0 L 1.296875 -10.265625 L 7.171875 -10.265625 L 7.171875 -8.484375 L 3.4375 -8.484375 L 3.4375 -5.84375 L 6.921875 -5.84375 L 6.921875 -4.046875 L 3.4375 -4.046875 Z M 3.4375 0 "/></g></g></g><g fill="#04539a" fill-opacity="1"><g transform="translate(8.753773, 12.489764)"><g><path d="M 5.125 0 L 0.453125 0 L 0.453125 -1.234375 L 1.703125 -1.8125 L 1.703125 -8.453125 L 0.453125 -9.03125 L 0.453125 -10.265625 L 5.125 -10.265625 L 5.125 -9.03125 L 3.875 -8.453125 L 3.875 -1.8125 L 5.125 -1.234375 Z M 5.125 0 "/></g></g></g><g fill="#04539a" fill-opacity="1"><g transform="translate(14.348045, 12.489764)"><g><path d="M 1.296875 0 L 1.296875 -10.265625 L 3.46875 -10.265625 L 3.46875 -1.796875 L 7.640625 -1.796875 L 7.640625 0 Z M 1.296875 0 "/></g></g></g><g fill="#04539a" fill-opacity="1"><g transform="translate(22.473409, 12.489764)"><g><path d="M 5.640625 0 L 3.15625 -8.046875 L 3.109375 -8.046875 C 3.117188 -7.859375 3.128906 -7.570312 3.140625 -7.1875 C 3.160156 -6.800781 3.179688 -6.390625 3.203125 -5.953125 C 3.222656 -5.515625 3.234375 -5.117188 3.234375 -4.765625 L 3.234375 0 L 1.296875 0 L 1.296875 -10.265625 L 4.25 -10.265625 L 6.6875 -2.421875 L 6.734375 -2.421875 L 9.296875 -10.265625 L 12.265625 -10.265625 L 12.265625 0 L 10.234375 0 L 10.234375 -4.859375 C 10.234375 -5.179688 10.238281 -5.550781 10.25 -5.96875 C 10.269531 -6.394531 10.285156 -6.796875 10.296875 -7.171875 C 10.316406 -7.554688 10.328125 -7.84375 10.328125 -8.03125 L 10.28125 -8.03125 L 7.640625 0 Z M 5.640625 0 "/></g></g></g><g fill="#04539a" fill-opacity="1"><g transform="translate(36.034856, 12.489764)"><g/></g></g><g fill="#04539a" fill-opacity="1"><g transform="translate(40.922193, 12.489764)"><g><path d="M 7.34375 -2.84375 C 7.34375 -1.9375 7.015625 -1.210938 6.359375 -0.671875 C 5.703125 -0.128906 4.769531 0.140625 3.5625 0.140625 C 2.476562 0.140625 1.507812 -0.0625 0.65625 -0.46875 L 0.65625 -2.5 C 1.144531 -2.289062 1.648438 -2.097656 2.171875 -1.921875 C 2.703125 -1.742188 3.222656 -1.65625 3.734375 -1.65625 C 4.273438 -1.65625 4.65625 -1.753906 4.875 -1.953125 C 5.101562 -2.160156 5.21875 -2.425781 5.21875 -2.75 C 5.21875 -3.007812 5.128906 -3.226562 4.953125 -3.40625 C 4.773438 -3.59375 4.535156 -3.765625 4.234375 -3.921875 C 3.941406 -4.078125 3.601562 -4.242188 3.21875 -4.421875 C 2.976562 -4.535156 2.71875 -4.671875 2.4375 -4.828125 C 2.164062 -4.992188 1.898438 -5.191406 1.640625 -5.421875 C 1.390625 -5.660156 1.179688 -5.945312 1.015625 -6.28125 C 0.859375 -6.613281 0.78125 -7.015625 0.78125 -7.484375 C 0.78125 -8.410156 1.085938 -9.128906 1.703125 -9.640625 C 2.328125 -10.148438 3.175781 -10.40625 4.25 -10.40625 C 4.789062 -10.40625 5.300781 -10.34375 5.78125 -10.21875 C 6.257812 -10.09375 6.765625 -9.914062 7.296875 -9.6875 L 6.59375 -8 C 6.125 -8.1875 5.703125 -8.332031 5.328125 -8.4375 C 4.953125 -8.539062 4.570312 -8.59375 4.1875 -8.59375 C 3.769531 -8.59375 3.453125 -8.492188 3.234375 -8.296875 C 3.015625 -8.109375 2.90625 -7.863281 2.90625 -7.5625 C 2.90625 -7.195312 3.066406 -6.90625 3.390625 -6.6875 C 3.710938 -6.476562 4.195312 -6.222656 4.84375 -5.921875 C 5.375 -5.671875 5.820312 -5.410156 6.1875 -5.140625 C 6.550781 -4.878906 6.832031 -4.566406 7.03125 -4.203125 C 7.238281 -3.835938 7.34375 -3.382812 7.34375 -2.84375 Z M 7.34375 -2.84375 "/></g></g></g><g fill="#04539a" fill-opacity="1"><g transform="translate(48.846218, 12.489764)"><g><path d="M 5.25 0 L 3.078125 0 L 3.078125 -8.453125 L 0.28125 -8.453125 L 0.28125 -10.265625 L 8.03125 -10.265625 L 8.03125 -8.453125 L 5.25 -8.453125 Z M 5.25 0 "/></g></g></g><g fill="#04539a" fill-opacity="1"><g transform="translate(57.172921, 12.489764)"><g><path d="M 4.28125 -10.265625 C 5.675781 -10.265625 6.707031 -10.007812 7.375 -9.5 C 8.039062 -8.988281 8.375 -8.21875 8.375 -7.1875 C 8.375 -6.71875 8.285156 -6.304688 8.109375 -5.953125 C 7.929688 -5.609375 7.695312 -5.3125 7.40625 -5.0625 C 7.113281 -4.820312 6.800781 -4.625 6.46875 -4.46875 L 9.484375 0 L 7.078125 0 L 4.625 -3.9375 L 3.46875 -3.9375 L 3.46875 0 L 1.296875 0 L 1.296875 -10.265625 Z M 4.125 -8.484375 L 3.46875 -8.484375 L 3.46875 -5.703125 L 4.171875 -5.703125 C 4.890625 -5.703125 5.40625 -5.820312 5.71875 -6.0625 C 6.03125 -6.300781 6.1875 -6.65625 6.1875 -7.125 C 6.1875 -7.613281 6.015625 -7.960938 5.671875 -8.171875 C 5.335938 -8.378906 4.820312 -8.484375 4.125 -8.484375 Z M 4.125 -8.484375 "/></g></g></g><g fill="#04539a" fill-opacity="1"><g transform="translate(66.664494, 12.489764)"><g><path d="M 7.203125 0 L 1.296875 0 L 1.296875 -10.265625 L 7.203125 -10.265625 L 7.203125 -8.484375 L 3.46875 -8.484375 L 3.46875 -6.21875 L 6.9375 -6.21875 L 6.9375 -4.4375 L 3.46875 -4.4375 L 3.46875 -1.796875 L 7.203125 -1.796875 Z M 7.203125 0 "/></g></g></g><g fill="#04539a" fill-opacity="1"><g transform="translate(74.717954, 12.489764)"><g><path d="M 7.578125 0 L 6.828125 -2.4375 L 3.09375 -2.4375 L 2.34375 0 L 0 0 L 3.625 -10.3125 L 6.28125 -10.3125 L 9.921875 0 Z M 6.3125 -4.265625 L 5.5625 -6.65625 C 5.507812 -6.820312 5.445312 -7.023438 5.375 -7.265625 C 5.300781 -7.515625 5.222656 -7.769531 5.140625 -8.03125 C 5.066406 -8.289062 5.003906 -8.519531 4.953125 -8.71875 C 4.910156 -8.519531 4.847656 -8.28125 4.765625 -8 C 4.679688 -7.71875 4.601562 -7.445312 4.53125 -7.1875 C 4.457031 -6.9375 4.40625 -6.757812 4.375 -6.65625 L 3.640625 -4.265625 Z M 6.3125 -4.265625 "/></g></g></g><g fill="#04539a" fill-opacity="1"><g transform="translate(84.640959, 12.489764)"><g><path d="M 5.640625 0 L 3.15625 -8.046875 L 3.109375 -8.046875 C 3.117188 -7.859375 3.128906 -7.570312 3.140625 -7.1875 C 3.160156 -6.800781 3.179688 -6.390625 3.203125 -5.953125 C 3.222656 -5.515625 3.234375 -5.117188 3.234375 -4.765625 L 3.234375 0 L 1.296875 0 L 1.296875 -10.265625 L 4.25 -10.265625 L 6.6875 -2.421875 L 6.734375 -2.421875 L 9.296875 -10.265625 L 12.265625 -10.265625 L 12.265625 0 L 10.234375 0 L 10.234375 -4.859375 C 10.234375 -5.179688 10.238281 -5.550781 10.25 -5.96875 C 10.269531 -6.394531 10.285156 -6.796875 10.296875 -7.171875 C 10.316406 -7.554688 10.328125 -7.84375 10.328125 -8.03125 L 10.28125 -8.03125 L 7.640625 0 Z M 5.640625 0 "/></g></g></g><g fill="#04539a" fill-opacity="1"><g transform="translate(98.202406, 12.489764)"><g/></g></g><g fill="#04539a" fill-opacity="1"><g transform="translate(103.089742, 12.489764)"><g><path d="M 5.1875 -5.765625 L 9.25 -5.765625 L 9.25 -0.453125 C 8.71875 -0.265625 8.160156 -0.117188 7.578125 -0.015625 C 6.992188 0.0859375 6.335938 0.140625 5.609375 0.140625 C 4.078125 0.140625 2.894531 -0.304688 2.0625 -1.203125 C 1.238281 -2.109375 0.828125 -3.421875 0.828125 -5.140625 C 0.828125 -6.210938 1.03125 -7.140625 1.4375 -7.921875 C 1.851562 -8.710938 2.460938 -9.320312 3.265625 -9.75 C 4.066406 -10.1875 5.046875 -10.40625 6.203125 -10.40625 C 6.742188 -10.40625 7.273438 -10.347656 7.796875 -10.234375 C 8.328125 -10.117188 8.8125 -9.96875 9.25 -9.78125 L 8.53125 -8.03125 C 8.207031 -8.195312 7.84375 -8.332031 7.4375 -8.4375 C 7.039062 -8.539062 6.625 -8.59375 6.1875 -8.59375 C 5.550781 -8.59375 5 -8.445312 4.53125 -8.15625 C 4.070312 -7.875 3.710938 -7.46875 3.453125 -6.9375 C 3.203125 -6.414062 3.078125 -5.804688 3.078125 -5.109375 C 3.078125 -4.429688 3.164062 -3.832031 3.34375 -3.3125 C 3.53125 -2.800781 3.816406 -2.398438 4.203125 -2.109375 C 4.597656 -1.816406 5.113281 -1.671875 5.75 -1.671875 C 6.050781 -1.671875 6.304688 -1.679688 6.515625 -1.703125 C 6.734375 -1.734375 6.9375 -1.769531 7.125 -1.8125 L 7.125 -3.953125 L 5.1875 -3.953125 Z M 5.1875 -5.765625 "/></g></g></g><g fill="#04539a" fill-opacity="1"><g transform="translate(113.50171, 12.489764)"><g><path d="M 10.609375 -5.140625 C 10.609375 -4.078125 10.429688 -3.148438 10.078125 -2.359375 C 9.734375 -1.566406 9.195312 -0.953125 8.46875 -0.515625 C 7.75 -0.078125 6.832031 0.140625 5.71875 0.140625 C 4.601562 0.140625 3.6875 -0.078125 2.96875 -0.515625 C 2.25 -0.953125 1.710938 -1.566406 1.359375 -2.359375 C 1.003906 -3.160156 0.828125 -4.09375 0.828125 -5.15625 C 0.828125 -6.21875 1.003906 -7.140625 1.359375 -7.921875 C 1.710938 -8.710938 2.25 -9.328125 2.96875 -9.765625 C 3.6875 -10.203125 4.609375 -10.421875 5.734375 -10.421875 C 6.847656 -10.421875 7.765625 -10.203125 8.484375 -9.765625 C 9.203125 -9.328125 9.734375 -8.710938 10.078125 -7.921875 C 10.429688 -7.128906 10.609375 -6.203125 10.609375 -5.140625 Z M 3.125 -5.140625 C 3.125 -4.066406 3.328125 -3.222656 3.734375 -2.609375 C 4.148438 -1.992188 4.8125 -1.6875 5.71875 -1.6875 C 6.644531 -1.6875 7.3125 -1.992188 7.71875 -2.609375 C 8.125 -3.222656 8.328125 -4.066406 8.328125 -5.140625 C 8.328125 -6.210938 8.125 -7.054688 7.71875 -7.671875 C 7.3125 -8.296875 6.648438 -8.609375 5.734375 -8.609375 C 4.816406 -8.609375 4.148438 -8.296875 3.734375 -7.671875 C 3.328125 -7.054688 3.125 -6.210938 3.125 -5.140625 Z M 3.125 -5.140625 "/></g></g></g></g></g></svg>