<svg xmlns="http://www.w3.org/2000/svg" xmlns:xlink="http://www.w3.org/1999/xlink" width="300" zoomAndPan="magnify" viewBox="0 0 224.87999 37.5" height="50" preserveAspectRatio="xMidYMid meet" version="1.0"><defs><g/><clipPath id="e7510973a9"><path d="M 1.421875 0 L 223.339844 0 L 223.339844 37.007812 L 1.421875 37.007812 Z M 1.421875 0 " clip-rule="nonzero"/></clipPath><clipPath id="130495c0db"><path d="M 8.402344 1.902344 L 56 1.902344 L 56 24 L 8.402344 24 Z M 8.402344 1.902344 " clip-rule="nonzero"/></clipPath><clipPath id="d4ba1c96eb"><path d="M 14 11 L 62.433594 11 L 62.433594 32.988281 L 14 32.988281 Z M 14 11 " clip-rule="nonzero"/></clipPath><clipPath id="c715dc7877"><rect x="0" width="151" y="0" height="19"/></clipPath></defs><g clip-path="url(#e7510973a9)"><path fill="#ffffff" d="M 1.421875 0 L 223.460938 0 L 223.460938 37.007812 L 1.421875 37.007812 Z M 1.421875 0 " fill-opacity="1" fill-rule="nonzero"/><path fill="#04539a" d="M 1.421875 0 L 223.460938 0 L 223.460938 37.007812 L 1.421875 37.007812 Z M 1.421875 0 " fill-opacity="1" fill-rule="nonzero"/></g><g clip-path="url(#130495c0db)"><path fill="#ffffff" d="M 27.277344 1.902344 C 20.046875 1.902344 13.441406 3.09375 8.410156 5.054688 C 12.578125 4.0625 17.347656 3.5 22.414062 3.5 C 38.753906 3.5 52 9.351562 52 16.570312 C 52 19.054688 50.433594 21.375 47.714844 23.351562 C 52.734375 21.074219 55.828125 17.964844 55.828125 14.53125 C 55.828125 7.558594 43.042969 1.902344 27.277344 1.902344 " fill-opacity="1" fill-rule="nonzero"/></g><g clip-path="url(#d4ba1c96eb)"><path fill="#ffffff" d="M 43.433594 33.304688 C 50.664062 33.304688 57.269531 32.113281 62.300781 30.15625 C 58.132812 31.144531 53.363281 31.707031 48.296875 31.707031 C 31.957031 31.707031 18.710938 25.855469 18.710938 18.636719 C 18.710938 16.152344 20.277344 13.832031 22.996094 11.855469 C 17.976562 14.132812 14.882812 17.242188 14.882812 20.675781 C 14.882812 27.648438 27.667969 33.304688 43.433594 33.304688 " fill-opacity="1" fill-rule="nonzero"/></g><path fill="#ffffff" d="M 44.738281 14.316406 L 31.605469 6.734375 C 29.964844 5.789062 27.914062 6.972656 27.914062 8.867188 L 27.914062 24.03125 C 27.914062 25.925781 29.964844 27.113281 31.605469 26.164062 L 44.738281 18.582031 C 46.378906 17.632812 46.378906 15.265625 44.738281 14.316406 L 31.605469 6.734375 C 29.964844 5.789062 27.914062 6.972656 27.914062 8.867188 L 27.914062 24.03125 C 27.914062 25.925781 29.964844 27.113281 31.605469 26.164062 L 44.738281 18.582031 C 46.378906 17.632812 46.378906 15.265625 44.738281 14.316406 " fill-opacity="1" fill-rule="nonzero"/><g transform="matrix(1, 0, 0, 1, 66, 9)"><g clip-path="url(#c715dc7877)"><g fill="#ffffff" fill-opacity="1"><g transform="translate(0.911037, 13.794196)"><g><path d="M 4.125 0 L 1.546875 0 L 1.546875 -12.3125 L 8.609375 -12.3125 L 8.609375 -10.171875 L 4.125 -10.171875 L 4.125 -7 L 8.296875 -7 L 8.296875 -4.859375 L 4.125 -4.859375 Z M 4.125 0 "/></g></g></g><g fill="#ffffff" fill-opacity="1"><g transform="translate(10.378095, 13.794196)"><g><path d="M 6.15625 0 L 0.546875 0 L 0.546875 -1.484375 L 2.046875 -2.171875 L 2.046875 -10.140625 L 0.546875 -10.828125 L 0.546875 -12.3125 L 6.15625 -12.3125 L 6.15625 -10.828125 L 4.65625 -10.140625 L 4.65625 -2.171875 L 6.15625 -1.484375 Z M 6.15625 0 "/></g></g></g><g fill="#ffffff" fill-opacity="1"><g transform="translate(17.086082, 13.794196)"><g><path d="M 1.546875 0 L 1.546875 -12.3125 L 4.15625 -12.3125 L 4.15625 -2.15625 L 9.15625 -2.15625 L 9.15625 0 Z M 1.546875 0 "/></g></g></g><g fill="#ffffff" fill-opacity="1"><g transform="translate(26.829054, 13.794196)"><g><path d="M 6.765625 0 L 3.796875 -9.65625 L 3.71875 -9.65625 C 3.738281 -9.425781 3.757812 -9.082031 3.78125 -8.625 C 3.800781 -8.164062 3.820312 -7.671875 3.84375 -7.140625 C 3.863281 -6.609375 3.875 -6.140625 3.875 -5.734375 L 3.875 0 L 1.546875 0 L 1.546875 -12.3125 L 5.109375 -12.3125 L 8.015625 -2.890625 L 8.078125 -2.890625 L 11.15625 -12.3125 L 14.71875 -12.3125 L 14.71875 0 L 12.28125 0 L 12.28125 -5.828125 C 12.28125 -6.222656 12.285156 -6.671875 12.296875 -7.171875 C 12.316406 -7.679688 12.335938 -8.160156 12.359375 -8.609375 C 12.378906 -9.066406 12.394531 -9.410156 12.40625 -9.640625 L 12.328125 -9.640625 L 9.15625 0 Z M 6.765625 0 "/></g></g></g><g fill="#ffffff" fill-opacity="1"><g transform="translate(43.090331, 13.794196)"><g/></g></g><g fill="#ffffff" fill-opacity="1"><g transform="translate(48.950644, 13.794196)"><g><path d="M 8.8125 -3.421875 C 8.8125 -2.328125 8.414062 -1.453125 7.625 -0.796875 C 6.84375 -0.148438 5.726562 0.171875 4.28125 0.171875 C 2.976562 0.171875 1.816406 -0.0703125 0.796875 -0.5625 L 0.796875 -3 C 1.378906 -2.75 1.984375 -2.515625 2.609375 -2.296875 C 3.234375 -2.085938 3.859375 -1.984375 4.484375 -1.984375 C 5.128906 -1.984375 5.585938 -2.101562 5.859375 -2.34375 C 6.128906 -2.59375 6.265625 -2.910156 6.265625 -3.296875 C 6.265625 -3.609375 6.15625 -3.875 5.9375 -4.09375 C 5.726562 -4.3125 5.441406 -4.515625 5.078125 -4.703125 C 4.722656 -4.890625 4.316406 -5.09375 3.859375 -5.3125 C 3.578125 -5.445312 3.269531 -5.609375 2.9375 -5.796875 C 2.601562 -5.992188 2.28125 -6.234375 1.96875 -6.515625 C 1.664062 -6.796875 1.414062 -7.132812 1.21875 -7.53125 C 1.03125 -7.9375 0.9375 -8.421875 0.9375 -8.984375 C 0.9375 -10.085938 1.304688 -10.945312 2.046875 -11.5625 C 2.796875 -12.175781 3.816406 -12.484375 5.109375 -12.484375 C 5.753906 -12.484375 6.363281 -12.410156 6.9375 -12.265625 C 7.507812 -12.117188 8.117188 -11.90625 8.765625 -11.625 L 7.921875 -9.59375 C 7.359375 -9.820312 6.851562 -10 6.40625 -10.125 C 5.957031 -10.25 5.492188 -10.3125 5.015625 -10.3125 C 4.523438 -10.3125 4.144531 -10.195312 3.875 -9.96875 C 3.613281 -9.738281 3.484375 -9.441406 3.484375 -9.078125 C 3.484375 -8.640625 3.675781 -8.289062 4.0625 -8.03125 C 4.457031 -7.78125 5.039062 -7.472656 5.8125 -7.109375 C 6.445312 -6.804688 6.984375 -6.492188 7.421875 -6.171875 C 7.867188 -5.847656 8.210938 -5.46875 8.453125 -5.03125 C 8.691406 -4.59375 8.8125 -4.054688 8.8125 -3.421875 Z M 8.8125 -3.421875 "/></g></g></g><g fill="#ffffff" fill-opacity="1"><g transform="translate(58.452195, 13.794196)"><g><path d="M 6.296875 0 L 3.6875 0 L 3.6875 -10.140625 L 0.34375 -10.140625 L 0.34375 -12.3125 L 9.640625 -12.3125 L 9.640625 -10.140625 L 6.296875 -10.140625 Z M 6.296875 0 "/></g></g></g><g fill="#ffffff" fill-opacity="1"><g transform="translate(68.436587, 13.794196)"><g><path d="M 5.140625 -12.3125 C 6.816406 -12.3125 8.054688 -12.003906 8.859375 -11.390625 C 9.660156 -10.785156 10.0625 -9.863281 10.0625 -8.625 C 10.0625 -8.0625 9.953125 -7.566406 9.734375 -7.140625 C 9.523438 -6.722656 9.242188 -6.367188 8.890625 -6.078125 C 8.535156 -5.785156 8.160156 -5.546875 7.765625 -5.359375 L 11.390625 0 L 8.484375 0 L 5.546875 -4.71875 L 4.15625 -4.71875 L 4.15625 0 L 1.546875 0 L 1.546875 -12.3125 Z M 4.953125 -10.171875 L 4.15625 -10.171875 L 4.15625 -6.84375 L 5 -6.84375 C 5.863281 -6.84375 6.484375 -6.984375 6.859375 -7.265625 C 7.234375 -7.554688 7.421875 -7.988281 7.421875 -8.5625 C 7.421875 -9.144531 7.21875 -9.554688 6.8125 -9.796875 C 6.40625 -10.046875 5.785156 -10.171875 4.953125 -10.171875 Z M 4.953125 -10.171875 "/></g></g></g><g fill="#ffffff" fill-opacity="1"><g transform="translate(79.817755, 13.794196)"><g><path d="M 8.640625 0 L 1.546875 0 L 1.546875 -12.3125 L 8.640625 -12.3125 L 8.640625 -10.171875 L 4.15625 -10.171875 L 4.15625 -7.46875 L 8.328125 -7.46875 L 8.328125 -5.328125 L 4.15625 -5.328125 L 4.15625 -2.15625 L 8.640625 -2.15625 Z M 8.640625 0 "/></g></g></g><g fill="#ffffff" fill-opacity="1"><g transform="translate(89.474509, 13.794196)"><g><path d="M 9.09375 0 L 8.1875 -2.9375 L 3.703125 -2.9375 L 2.8125 0 L 0 0 L 4.34375 -12.375 L 7.53125 -12.375 L 11.90625 0 Z M 7.578125 -5.125 L 6.671875 -7.984375 C 6.617188 -8.179688 6.546875 -8.425781 6.453125 -8.71875 C 6.359375 -9.019531 6.265625 -9.328125 6.171875 -9.640625 C 6.078125 -9.953125 6.003906 -10.222656 5.953125 -10.453125 C 5.890625 -10.222656 5.8125 -9.9375 5.71875 -9.59375 C 5.625 -9.257812 5.53125 -8.9375 5.4375 -8.625 C 5.351562 -8.320312 5.289062 -8.109375 5.25 -7.984375 L 4.359375 -5.125 Z M 7.578125 -5.125 "/></g></g></g><g fill="#ffffff" fill-opacity="1"><g transform="translate(101.372998, 13.794196)"><g><path d="M 6.765625 0 L 3.796875 -9.65625 L 3.71875 -9.65625 C 3.738281 -9.425781 3.757812 -9.082031 3.78125 -8.625 C 3.800781 -8.164062 3.820312 -7.671875 3.84375 -7.140625 C 3.863281 -6.609375 3.875 -6.140625 3.875 -5.734375 L 3.875 0 L 1.546875 0 L 1.546875 -12.3125 L 5.109375 -12.3125 L 8.015625 -2.890625 L 8.078125 -2.890625 L 11.15625 -12.3125 L 14.71875 -12.3125 L 14.71875 0 L 12.28125 0 L 12.28125 -5.828125 C 12.28125 -6.222656 12.285156 -6.671875 12.296875 -7.171875 C 12.316406 -7.679688 12.335938 -8.160156 12.359375 -8.609375 C 12.378906 -9.066406 12.394531 -9.410156 12.40625 -9.640625 L 12.328125 -9.640625 L 9.15625 0 Z M 6.765625 0 "/></g></g></g><g fill="#ffffff" fill-opacity="1"><g transform="translate(117.634274, 13.794196)"><g/></g></g><g fill="#ffffff" fill-opacity="1"><g transform="translate(123.494588, 13.794196)"><g><path d="M 6.234375 -6.921875 L 11.109375 -6.921875 L 11.109375 -0.53125 C 10.460938 -0.3125 9.785156 -0.140625 9.078125 -0.015625 C 8.378906 0.109375 7.597656 0.171875 6.734375 0.171875 C 4.890625 0.171875 3.472656 -0.367188 2.484375 -1.453125 C 1.492188 -2.535156 1 -4.109375 1 -6.171875 C 1 -7.460938 1.242188 -8.578125 1.734375 -9.515625 C 2.234375 -10.460938 2.960938 -11.191406 3.921875 -11.703125 C 4.878906 -12.222656 6.050781 -12.484375 7.4375 -12.484375 C 8.09375 -12.484375 8.734375 -12.414062 9.359375 -12.28125 C 9.992188 -12.144531 10.570312 -11.960938 11.09375 -11.734375 L 10.234375 -9.640625 C 9.847656 -9.835938 9.414062 -10 8.9375 -10.125 C 8.457031 -10.25 7.953125 -10.3125 7.421875 -10.3125 C 6.660156 -10.3125 6 -10.140625 5.4375 -9.796875 C 4.882812 -9.453125 4.453125 -8.960938 4.140625 -8.328125 C 3.835938 -7.703125 3.6875 -6.96875 3.6875 -6.125 C 3.6875 -5.320312 3.796875 -4.609375 4.015625 -3.984375 C 4.234375 -3.359375 4.578125 -2.867188 5.046875 -2.515625 C 5.523438 -2.171875 6.144531 -2 6.90625 -2 C 7.269531 -2 7.578125 -2.015625 7.828125 -2.046875 C 8.085938 -2.085938 8.332031 -2.128906 8.5625 -2.171875 L 8.5625 -4.75 L 6.234375 -4.75 Z M 6.234375 -6.921875 "/></g></g></g><g fill="#ffffff" fill-opacity="1"><g transform="translate(135.979384, 13.794196)"><g><path d="M 12.734375 -6.171875 C 12.734375 -4.898438 12.519531 -3.789062 12.09375 -2.84375 C 11.675781 -1.894531 11.03125 -1.15625 10.15625 -0.625 C 9.289062 -0.09375 8.191406 0.171875 6.859375 0.171875 C 5.523438 0.171875 4.425781 -0.09375 3.5625 -0.625 C 2.695312 -1.15625 2.050781 -1.894531 1.625 -2.84375 C 1.207031 -3.800781 1 -4.914062 1 -6.1875 C 1 -7.46875 1.207031 -8.578125 1.625 -9.515625 C 2.050781 -10.460938 2.695312 -11.195312 3.5625 -11.71875 C 4.425781 -12.238281 5.53125 -12.5 6.875 -12.5 C 8.21875 -12.5 9.316406 -12.238281 10.171875 -11.71875 C 11.035156 -11.195312 11.675781 -10.460938 12.09375 -9.515625 C 12.519531 -8.566406 12.734375 -7.453125 12.734375 -6.171875 Z M 3.75 -6.171875 C 3.75 -4.890625 3.992188 -3.875 4.484375 -3.125 C 4.984375 -2.382812 5.773438 -2.015625 6.859375 -2.015625 C 7.972656 -2.015625 8.769531 -2.382812 9.25 -3.125 C 9.738281 -3.875 9.984375 -4.890625 9.984375 -6.171875 C 9.984375 -7.460938 9.738281 -8.476562 9.25 -9.21875 C 8.769531 -9.957031 7.976562 -10.328125 6.875 -10.328125 C 5.78125 -10.328125 4.984375 -9.957031 4.484375 -9.21875 C 3.992188 -8.476562 3.75 -7.460938 3.75 -6.171875 Z M 3.75 -6.171875 "/></g></g></g></g></g></svg>